# xmcd CD database file
#
# Track frame offsets:
#	150
#	11573
#	25130
#	36128
#	47055
#	58530
#	68313
#	82652
#	95032
#	107794
#	131236
#
# Disc length: 4440 seconds
#
# Revision: 0
# Processed by: cddbd v1.5.1PL0 Copyright (c) Steve Scherf et al.
# Submitted via: CDex 1.51
#
DISCID=8411560b
DTITLE=El Palomo and El Gorrión - 3 momentos de Colección Vol. 1 CD3/3
DYEAR=2004
DGENRE=Ranchero
TTITLE0=La Cuenta and Un Gendarme
TTITLE1=La Vieja
TTITLE2=Al Centavo
TTITLE3=Adiós Morena
TTITLE4=Hoy Te Mandare Una Carta
TTITLE5=La Camisa
TTITLE6=Traiciones Políticas
TTITLE7=Dicen Que Los Ojos Negros
TTITLE8=Solo Falta Tú Amor
TTITLE9=Mil Alfileres
TTITLE10=
EXTD=YEAR: 2004
EXTT0=
EXTT1=
EXTT2=
EXTT3=
EXTT4=
EXTT5=
EXTT6=
EXTT7=
EXTT8=
EXTT9=
EXTT10=
PLAYORDER=
